<svg xmlns="http://www.w3.org/2000/svg" xmlns:xlink="http://www.w3.org/1999/xlink" version="1.1" width="256" height="256" viewBox="0 0 256 256" xml:space="preserve">

<defs>
</defs>
<g style="stroke: none; stroke-width: 0; stroke-dasharray: none; stroke-linecap: butt; stroke-linejoin: miter; stroke-miterlimit: 10; fill: none; fill-rule: nonzero; opacity: 1;" transform="translate(1.4065934065934016 1.4065934065934016) scale(2.81 2.81)" >
	<path d="M 45 0 C 20.147 0 0 20.147 0 45 c 0 24.853 20.147 45 45 45 s 45 -20.147 45 -45 C 90 20.147 69.853 0 45 0 z M 68 43.826 c 0 1.104 -0.896 2 -2 2 s -2 -0.896 -2 -2 V 28.828 L 28.828 64 h 14.998 c 1.104 0 2 0.896 2 2 s -0.896 2 -2 2 H 24 c -0.131 0 -0.262 -0.014 -0.392 -0.039 c -0.059 -0.012 -0.114 -0.034 -0.171 -0.051 c -0.068 -0.02 -0.137 -0.036 -0.203 -0.063 c -0.066 -0.028 -0.127 -0.065 -0.19 -0.1 c -0.052 -0.028 -0.105 -0.051 -0.155 -0.084 c -0.219 -0.147 -0.408 -0.335 -0.554 -0.555 c -0.032 -0.047 -0.053 -0.099 -0.081 -0.148 c -0.036 -0.065 -0.075 -0.127 -0.103 -0.196 c -0.027 -0.065 -0.042 -0.133 -0.062 -0.2 c -0.017 -0.058 -0.039 -0.113 -0.051 -0.173 C 22.014 66.262 22 66.131 22 66 V 46.175 c 0 -1.104 0.896 -2 2 -2 s 2 0.896 2 2 v 14.997 L 61.172 26 H 46.175 c -1.104 0 -2 -0.896 -2 -2 s 0.896 -2 2 -2 H 66 c 0.131 0 0.262 0.014 0.392 0.039 c 0.06 0.012 0.115 0.034 0.173 0.051 c 0.067 0.02 0.135 0.035 0.2 0.062 c 0.069 0.028 0.131 0.067 0.196 0.103 c 0.049 0.027 0.101 0.049 0.148 0.081 c 0.219 0.147 0.408 0.335 0.555 0.554 c 0.033 0.049 0.055 0.102 0.083 0.153 c 0.035 0.063 0.073 0.124 0.101 0.192 c 0.027 0.066 0.043 0.134 0.063 0.202 c 0.017 0.057 0.039 0.112 0.051 0.171 C 67.986 23.738 68 23.869 68 24 V 43.826 z" style="stroke: none; stroke-width: 1; stroke-dasharray: none; stroke-linecap: butt; stroke-linejoin: miter; stroke-miterlimit: 10; fill: rgb(0,0,0); fill-rule: nonzero; opacity: 1;" transform=" matrix(1 0 0 1 0 0) " stroke-linecap="round" />
</g>
</svg>